<svg width="337" height="126" viewBox="0 0 337 126" fill="none" xmlns="http://www.w3.org/2000/svg">
<path d="M174.464 81.9019C181.063 83.7447 189.306 88.227 194.336 98.9349V38.6719H150.907C155.04 41.6103 160.22 46.0429 164.702 52.1688C171.102 60.9842 174.389 70.9948 174.464 81.9019Z" fill="white"/>
<path d="M32.0241 112.483C29.8327 109.37 26.446 106.681 22.2376 104.639C20.9178 103.991 19.5232 103.692 18.1038 103.692C16.0369 103.692 13.9701 104.365 12.1522 105.685C8.59121 108.225 6.39983 112.807 6.87297 116.766C7.2714 120.078 9.38808 122.668 12.7997 124.037C14.3934 124.66 16.012 125.009 17.6058 125.009C23.7815 125.009 28.0148 120.128 29.9572 117.339C30.1315 117.812 30.1813 118.111 30.2062 118.185C30.2311 119.331 31.1525 120.252 32.298 120.252C33.4435 120.252 34.4147 119.306 34.4147 118.16C34.3649 117.314 33.8668 115.122 32.0241 112.483ZM14.244 120.701C12.0775 119.829 10.8324 118.31 10.5834 116.318C10.2597 113.678 11.8285 110.491 14.3187 108.723C15.1156 108.15 16.4852 107.403 18.1536 107.403C18.9505 107.403 19.7972 107.577 20.7185 108.025C24.1799 109.694 26.4958 111.661 27.9899 113.404C26.7199 115.82 21.8889 123.763 14.244 120.701Z" fill="black"/>
<path d="M14.244 120.7C12.0775 119.828 10.8324 118.309 10.5834 116.317C10.2596 113.677 11.8285 110.49 14.3187 108.722C15.1155 108.149 16.4852 107.402 18.1536 107.402C18.9505 107.402 19.7971 107.576 20.7185 108.025C24.1799 109.693 26.4958 111.66 27.9899 113.404C26.7199 115.819 21.8889 123.763 14.244 120.7Z" fill="white"/>
<path d="M272.155 112.483C269.989 109.37 266.602 106.681 262.393 104.639C261.074 103.991 259.679 103.692 258.26 103.692C256.193 103.692 254.126 104.365 252.308 105.685C248.747 108.225 246.556 112.807 247.029 116.766C247.427 120.078 249.519 122.668 252.931 124.037C254.524 124.66 256.143 125.009 257.737 125.009C263.912 125.009 268.146 120.128 270.088 117.339C270.262 117.812 270.312 118.111 270.312 118.185C270.337 119.331 271.259 120.252 272.429 120.252C273.574 120.252 274.546 119.306 274.546 118.16C274.521 117.314 274.023 115.122 272.155 112.483ZM254.4 120.701C252.233 119.829 250.988 118.31 250.739 116.318C250.415 113.678 251.984 110.491 254.45 108.723C255.246 108.15 256.616 107.403 258.285 107.403C259.081 107.403 259.953 107.577 260.849 108.025C264.336 109.694 266.652 111.661 268.121 113.404C266.876 115.82 262.045 123.763 254.4 120.701Z" fill="black"/>
<path d="M254.4 120.7C252.233 119.828 250.988 118.309 250.739 116.317C250.415 113.677 251.984 110.49 254.45 108.722C255.246 108.149 256.616 107.402 258.285 107.402C259.081 107.402 259.953 107.576 260.849 108.025C264.336 109.693 266.652 111.66 268.121 113.404C266.876 115.819 262.045 123.763 254.4 120.7Z" fill="white"/>
<path d="M102.323 43.3542L75.8269 69.0532C88.1783 63.002 98.438 60.213 102.323 59.2916V43.3542Z" fill="white"/>
<path d="M47.9615 43.3542L21.4656 69.0532C33.8171 63.002 44.0767 60.213 47.9615 59.2916V43.3542Z" fill="white"/>
<path d="M164.478 98.1885C162.486 99.2842 159.573 99.2593 157.356 96.7691C156.41 95.6734 155.016 91.3156 157.157 88.0534C158.577 85.9118 161.39 84.7663 165.599 84.6916C165.873 84.6667 167.666 84.592 170.256 85.0402C170.181 85.7873 169.384 95.4742 164.478 98.1885Z" fill="white"/>
<path d="M102.323 63.7737C96.3711 65.2927 81.9279 69.6506 66.2147 79.3624L102.323 111.436V63.7737Z" fill="white"/>
<path d="M333.937 120.202C335.083 120.202 335.83 120.401 336.203 120.774C336.577 121.148 336.776 121.845 336.776 122.816C336.776 123.763 336.577 124.435 336.203 124.809C335.83 125.157 335.108 125.356 333.987 125.356C332.841 125.356 332.094 125.157 331.721 124.784C331.347 124.41 331.148 123.713 331.148 122.717C331.148 121.77 331.322 121.098 331.721 120.725C332.069 120.376 332.817 120.202 333.937 120.202Z" fill="#4D4D4D"/>
<path d="M336.104 78.6157C335.506 77.2211 334.659 76.0756 333.588 75.1543C332.518 74.2329 331.248 73.5356 329.753 73.0874C328.284 72.6143 326.641 72.3901 324.873 72.3901C323.08 72.3901 321.436 72.6143 320.017 73.0376C318.572 73.4858 317.327 74.1333 316.331 75.0298C315.335 75.9013 314.563 76.997 314.015 78.3417C313.492 79.6615 313.219 81.2304 313.219 82.9984C313.219 84.8163 313.517 86.4349 314.115 87.8045C314.713 89.199 315.559 90.3446 316.63 91.2659C317.701 92.1624 318.996 92.8597 320.465 93.3079C321.959 93.7561 323.578 94.0052 325.346 94.0052C327.164 94.0052 328.782 93.781 330.227 93.3577C331.671 92.9344 332.891 92.262 333.887 91.3904C334.908 90.5189 335.68 89.3983 336.203 88.0785C336.726 86.7586 337 85.2147 337 83.4218C337 81.6039 336.701 79.9853 336.104 78.6157ZM332.966 86.41C332.518 87.2816 331.895 87.9539 331.123 88.452C330.351 88.95 329.455 89.3236 328.384 89.5477C327.338 89.7718 326.217 89.8465 325.047 89.8465C323.802 89.8465 322.681 89.722 321.635 89.4481C320.59 89.1741 319.668 88.7757 318.921 88.2279C318.174 87.68 317.576 86.9828 317.153 86.1361C316.73 85.2894 316.53 84.2684 316.53 83.098C316.53 81.828 316.755 80.7572 317.228 79.9106C317.676 79.039 318.323 78.3666 319.095 77.8686C319.867 77.3706 320.789 76.997 321.835 76.7978C322.881 76.5737 324.001 76.4741 325.147 76.4741C326.392 76.4741 327.537 76.5986 328.583 76.8725C329.629 77.1464 330.525 77.5449 331.273 78.0678C332.044 78.6406 332.617 79.3129 333.041 80.1845C333.464 81.0561 333.663 82.0521 333.663 83.1976C333.638 84.4926 333.439 85.5633 332.966 86.41Z" fill="#4D4D4D"/>
<path d="M335.929 34.4397C336.079 34.4397 336.178 34.4646 336.253 34.5393C336.353 34.614 336.427 34.7136 336.477 34.863C336.527 35.0124 336.602 35.2117 336.626 35.4607C336.676 35.7346 336.676 36.0334 336.676 36.407C336.676 36.8303 336.651 37.1291 336.626 37.403C336.602 37.677 336.527 37.8762 336.477 38.0007C336.402 38.175 336.328 38.2746 336.253 38.3244C336.153 38.3991 336.054 38.424 335.929 38.424H322.806C321.884 38.424 321.063 38.5236 320.291 38.6482C319.544 38.8225 318.896 39.0715 318.348 39.4201C317.8 39.7687 317.377 40.2419 317.103 40.7648C316.804 41.3127 316.655 41.9601 316.655 42.6823C316.655 43.6037 317.029 44.525 317.726 45.4464C318.423 46.3678 319.469 47.3888 320.814 48.4845H335.929C336.079 48.4845 336.178 48.5094 336.253 48.5841C336.353 48.6588 336.427 48.7584 336.477 48.9078C336.527 49.0572 336.602 49.2564 336.626 49.5304C336.676 49.7794 336.676 50.1031 336.676 50.5015C336.676 50.8502 336.651 51.1739 336.626 51.4478C336.602 51.7217 336.527 51.921 336.477 52.0704C336.402 52.2198 336.328 52.3194 336.253 52.3692C336.153 52.4439 336.054 52.4439 335.929 52.4439H322.806C321.884 52.4439 321.063 52.5435 320.291 52.7178C319.544 52.8921 318.896 53.1412 318.348 53.5147C317.8 53.8633 317.377 54.2867 317.103 54.8345C316.804 55.3824 316.655 56.0049 316.655 56.752C316.655 57.6734 317.029 58.5947 317.726 59.5161C318.423 60.4624 319.469 61.4585 320.814 62.5542H335.929C336.079 62.5542 336.178 62.5791 336.253 62.6538C336.353 62.7285 336.427 62.8281 336.477 62.9775C336.527 63.1269 336.602 63.3261 336.626 63.5751C336.676 63.8491 336.676 64.1728 336.676 64.5712C336.676 64.9448 336.651 65.2685 336.626 65.5175C336.602 65.7665 336.527 65.9906 336.477 66.1401C336.402 66.2895 336.328 66.3891 336.253 66.4389C336.153 66.4887 336.054 66.5385 335.929 66.5385H314.314C314.19 66.5385 314.09 66.5136 313.99 66.4638C313.891 66.414 313.816 66.3393 313.741 66.1899C313.667 66.0405 313.617 65.8412 313.592 65.642C313.592 65.4179 313.567 65.1191 313.567 64.7455C313.567 64.3969 313.592 64.0981 313.592 63.874C313.617 63.6498 313.667 63.4755 313.741 63.351C313.816 63.2265 313.891 63.1269 313.99 63.0771C314.09 63.0273 314.19 63.0024 314.314 63.0024H317.178C315.833 61.7822 314.812 60.6118 314.19 59.4414C313.542 58.2959 313.219 57.1255 313.219 55.98C313.219 55.0835 313.318 54.2618 313.542 53.5645C313.741 52.8423 314.04 52.2198 314.414 51.6719C314.787 51.1241 315.236 50.6759 315.759 50.2774C316.257 49.9039 316.854 49.5802 317.477 49.3311C316.705 48.609 316.032 47.9117 315.485 47.2643C314.937 46.6168 314.489 45.9943 314.165 45.3966C313.841 44.799 313.592 44.2013 313.418 43.6286C313.268 43.0558 313.194 42.4831 313.194 41.9103C313.194 40.5158 313.443 39.3454 313.941 38.3991C314.414 37.4778 315.061 36.7058 315.883 36.1081C316.705 35.5105 317.651 35.1121 318.747 34.863C319.842 34.614 321.013 34.4646 322.233 34.4646H335.929V34.4397Z" fill="#4D4D4D"/>
<path d="M332.642 97.3406C332.916 97.3406 333.14 97.3406 333.339 97.3655C333.539 97.3904 333.713 97.4153 333.862 97.4402C333.987 97.49 334.086 97.5398 334.211 97.5896C334.335 97.6394 334.485 97.7639 334.659 97.9631C334.883 98.1623 335.107 98.511 335.406 98.9841C335.68 99.4573 335.954 100.005 336.203 100.603C336.427 101.2 336.626 101.873 336.751 102.57C336.9 103.267 336.975 103.989 336.975 104.737C336.975 106.305 336.701 107.675 336.203 108.87C335.68 110.09 334.958 111.087 333.962 111.908C332.966 112.705 331.771 113.328 330.351 113.751C328.907 114.149 327.263 114.374 325.396 114.374C323.254 114.374 321.436 114.125 319.917 113.602C318.398 113.079 317.128 112.357 316.157 111.46C315.161 110.564 314.439 109.493 313.99 108.273C313.517 107.052 313.268 105.733 313.268 104.288C313.268 103.591 313.343 102.919 313.468 102.296C313.617 101.649 313.766 101.051 313.99 100.503C314.19 99.9553 314.439 99.4822 314.688 99.0588C314.962 98.6355 315.211 98.3367 315.385 98.1374C315.584 97.9631 315.734 97.8137 315.833 97.739C315.958 97.6643 316.082 97.5896 316.232 97.5398C316.381 97.49 316.555 97.4651 316.755 97.4651C316.954 97.4402 317.178 97.4402 317.477 97.4402C318.099 97.4402 318.523 97.5149 318.797 97.6643C319.046 97.8137 319.145 97.9631 319.145 98.1872C319.145 98.4363 319.021 98.7351 318.772 99.009C318.498 99.3327 318.199 99.7312 317.875 100.204C317.551 100.677 317.278 101.25 317.004 101.923C316.755 102.62 316.605 103.417 316.605 104.338C316.605 106.231 317.327 107.7 318.797 108.696C320.266 109.717 322.382 110.24 325.172 110.24C326.566 110.24 327.786 110.115 328.832 109.841C329.903 109.568 330.75 109.194 331.472 108.671C332.194 108.173 332.717 107.526 333.041 106.803C333.389 106.056 333.563 105.21 333.563 104.238C333.563 103.317 333.414 102.52 333.115 101.823C332.841 101.126 332.518 100.553 332.169 100.03C331.82 99.532 331.522 99.1086 331.223 98.76C330.949 98.4114 330.799 98.1374 330.799 97.9631C330.799 97.8386 330.824 97.7639 330.899 97.6892C330.949 97.5896 331.073 97.5398 331.223 97.4651C331.397 97.4153 331.571 97.3904 331.82 97.3406C332.044 97.3406 332.318 97.3406 332.642 97.3406Z" fill="#4D4D4D"/>
<path d="M47.9614 63.7986C42.0347 65.3176 27.5915 69.6755 11.8534 79.3873L47.9614 111.461V63.7986Z" fill="white"/>
<path d="M305.026 34.4396H299.298H243.019H241.002H238.114V31.0778C239.384 28.0149 248.672 7.29631 265.108 4.53218C266.328 4.33296 267.573 4.23336 268.793 4.23336C279.128 4.23336 290.408 11.3305 302.286 25.3005C302.685 25.7737 303.258 26.0476 303.88 26.0476C304.353 26.0476 304.851 25.8733 305.225 25.5246C306.097 24.7776 306.221 23.4329 305.474 22.5613C292.774 7.59514 280.447 0 268.818 0C267.349 0 265.855 0.12451 264.41 0.373531C259.804 1.1455 255.371 3.13766 251.212 6.30023C247.9 8.84024 244.738 12.1024 241.849 16.0369C236.894 22.7605 234.329 29.1853 234.055 29.8825C233.955 30.1315 233.93 30.3806 233.93 30.6296V34.4147H91.2911H55.183H31.8747H17.4564H2.09178C0.946279 34.4396 0 35.3859 0 36.5563C0 37.7018 0.946279 38.6481 2.09178 38.6481H17.4564H31.8747H46.791L6.82317 77.3957C6.62396 77.57 6.47454 77.819 6.35003 78.0681L6.32513 78.1428L6.27533 78.2424C6.25042 78.3171 6.22552 78.4167 6.20062 78.5412C6.20062 78.5661 6.20062 78.591 6.17572 78.6159V78.6657C6.17572 78.7404 6.15082 78.8151 6.15082 78.9147V78.9396C6.15082 79.0143 6.15082 79.089 6.15082 79.114C6.15082 79.1638 6.15082 79.2136 6.17572 79.2385V79.2883C6.20062 79.3879 6.22552 79.4875 6.25042 79.5373H6.27533C6.30023 79.612 6.32513 79.6369 6.32513 79.7116C6.35003 79.7863 6.37494 79.8361 6.39984 79.9108C6.42474 79.9357 6.42474 79.9855 6.47454 80.0353C6.49945 80.0602 6.52435 80.11 6.54925 80.1349C6.57415 80.1598 6.57415 80.1847 6.59905 80.2345V80.2096L6.64886 80.2844L6.72356 80.3591C6.72356 80.3591 6.74847 80.384 6.77337 80.4089C6.79827 80.4338 6.82317 80.4836 6.87298 80.5334L47.9614 117.189V122.967C47.9614 124.137 48.9077 125.058 50.0532 125.058C51.2236 125.058 52.1699 124.112 52.1699 122.967V38.6481H55.183H88.5767H101.152L61.1595 77.3957C60.9852 77.57 60.8109 77.819 60.6864 78.0681L60.6615 78.1428L60.6366 78.2424C60.6117 78.3171 60.5619 78.4167 60.5619 78.5412C60.5619 78.5661 60.5619 78.591 60.5619 78.6159V78.6657C60.5619 78.7404 60.537 78.8151 60.537 78.9147V78.9396C60.537 79.0143 60.5619 79.089 60.5619 79.114C60.5619 79.1638 60.5868 79.2136 60.5868 79.2385V79.2883C60.5868 79.3879 60.6366 79.4875 60.6615 79.5373C60.6864 79.612 60.6864 79.6369 60.7113 79.7116C60.7611 79.7863 60.786 79.8361 60.8109 79.9108C60.8358 79.9357 60.8607 79.9855 60.8856 80.0353C60.9105 80.0602 60.9354 80.11 60.9603 80.1349C60.9852 80.1598 60.9852 80.1847 61.0101 80.2345V80.1847L61.0599 80.2594L61.1346 80.3341C61.1346 80.3341 61.1595 80.3591 61.1595 80.384C61.2093 80.4089 61.2342 80.4587 61.284 80.5085L102.348 117.164V122.942C102.348 124.112 103.294 125.033 104.439 125.033C105.585 125.033 106.531 124.087 106.531 122.942V62.828C107.951 62.6786 110.167 62.5043 112.806 62.5043C119.157 62.5043 127.698 63.4754 132.479 68.0823C134.646 70.1492 135.841 72.8884 136.09 76.2253C134.372 74.781 132.33 73.4861 130.014 72.3904C128.694 71.7678 127.299 71.4441 125.88 71.4441C123.813 71.4441 121.746 72.1414 119.928 73.4363C116.343 75.9763 114.176 80.5334 114.649 84.5177C115.073 87.8546 117.164 90.4195 120.576 91.814C122.095 92.4366 123.664 92.7354 125.183 92.7354C131.209 92.7354 135.542 88.004 137.684 84.9908C137.908 85.5138 137.982 85.8624 137.982 85.962C138.007 87.1075 138.954 88.0289 140.099 88.0289C141.27 88.0289 142.216 87.0826 142.216 85.9371C142.216 85.1154 141.768 83.1232 140.149 80.6828C140.199 80.5583 140.224 80.4089 140.224 80.2844C140.946 73.9343 139.352 68.8045 135.467 65.0692C129.665 59.4911 120.003 58.2958 112.931 58.2958C110.416 58.2958 108.2 58.4452 106.606 58.5946V38.673H143.013C144.681 39.5196 151.23 43.1055 157.531 49.9536C165.748 58.8685 170.056 69.3274 170.33 81.0314C168.512 80.7824 167.143 80.7326 166.421 80.7326C166.221 80.7326 165.997 80.7326 165.898 80.7326C160.17 80.8322 156.186 82.6002 153.945 85.962C150.558 91.0421 151.679 98.936 156.535 101.601C160.27 103.643 165.001 102.646 166.421 101.874C172.198 98.6621 173.891 89.9464 174.364 86.1363C182.806 88.7262 192.767 96.1221 194.411 116.293V122.917C194.411 124.087 195.357 125.009 196.502 125.009C197.673 125.009 198.619 124.062 198.619 122.917V38.6481H213.486V122.917C213.486 124.087 214.407 125.009 215.577 125.009C216.748 125.009 217.669 124.062 217.669 122.917V38.6481H233.98V122.917C233.98 124.087 234.926 125.009 236.072 125.009C237.242 125.009 238.189 124.062 238.189 122.917V38.6481H241.077H243.094H287.868L247.801 77.3957C247.601 77.57 247.452 77.819 247.328 78.0681L247.303 78.1428L247.278 78.2424C247.253 78.3171 247.228 78.4167 247.203 78.5412C247.203 78.5661 247.203 78.591 247.203 78.6159L247.178 78.6657C247.178 78.7404 247.153 78.8151 247.153 78.9147V78.9396C247.153 79.0143 247.153 79.089 247.178 79.114C247.178 79.1638 247.203 79.2136 247.203 79.2385V79.2883C247.228 79.3879 247.253 79.4875 247.278 79.5373C247.278 79.612 247.303 79.6369 247.328 79.7116C247.377 79.7863 247.402 79.8361 247.427 79.9108C247.452 79.9357 247.452 79.9855 247.502 80.0353C247.527 80.0602 247.552 80.11 247.577 80.1349C247.577 80.1598 247.601 80.1847 247.626 80.2345V80.1847L247.676 80.2594L247.751 80.3341C247.751 80.3341 247.776 80.3591 247.801 80.384C247.826 80.4089 247.875 80.4587 247.9 80.5085L288.964 117.164V122.942C288.964 124.112 289.91 125.033 291.081 125.033C292.226 125.033 293.172 124.087 293.172 122.942V38.6481H299.323H305.051H310.853C311.027 38.0753 311.226 37.5524 311.475 37.0543C312.023 36.0084 312.745 35.1867 313.567 34.4396H305.026ZM47.9614 111.462L11.8534 79.363C27.5666 69.6512 42.0347 65.2933 47.9614 63.7743V111.462ZM47.9614 59.267C44.0767 60.1884 33.8419 62.9774 21.4656 69.0286L47.9614 43.3545V59.267ZM102.323 111.462L66.2147 79.3879C81.9279 69.6761 96.3711 65.3182 102.323 63.7992V111.462ZM102.323 59.267C98.438 60.1884 88.2032 62.9774 75.8269 69.0286L102.323 43.3545V59.267ZM122.244 88.1783C120.177 87.3565 118.982 85.9122 118.758 83.9948C118.459 81.4796 119.953 78.4167 122.319 76.7233C123.091 76.1755 124.386 75.4533 125.98 75.4533C126.752 75.4533 127.573 75.6277 128.445 76.0261C131.757 77.6198 133.948 79.4626 135.393 81.1559C133.625 84.1691 128.893 90.8428 122.244 88.1783ZM164.478 98.189C162.486 99.2846 159.573 99.2597 157.356 96.7695C156.41 95.6738 155.016 91.316 157.157 88.0538C158.577 85.9122 161.39 84.7667 165.599 84.692C165.873 84.6671 167.666 84.5924 170.256 85.0407C170.181 85.7877 169.384 95.4746 164.478 98.189ZM194.336 98.936C189.331 88.2281 181.063 83.7457 174.464 81.903C174.389 70.9959 171.102 60.9852 164.702 52.145C160.22 46.0191 155.04 41.5865 150.907 38.6481H194.336V98.936ZM288.964 111.462L252.856 79.3879C268.569 69.6761 283.037 65.3182 288.964 63.7992V111.462ZM288.964 59.267C285.079 60.1884 274.844 62.9774 262.493 69.0286L288.964 43.3545V59.267Z" fill="black"/>
<path d="M288.939 63.7737C283.012 65.2927 268.569 69.6755 252.831 79.3873L288.939 111.461V63.7737Z" fill="white"/>
<path d="M122.244 88.1783C120.177 87.3566 118.982 85.9122 118.733 83.9948C118.434 81.4797 119.953 78.4167 122.294 76.7234C123.066 76.1755 124.361 75.4534 125.955 75.4534C126.727 75.4534 127.548 75.6277 128.42 76.0261C131.732 77.6199 133.923 79.4626 135.368 81.156C133.625 84.1691 128.893 90.8429 122.244 88.1783Z" fill="white"/>
<path d="M288.939 43.3801L262.468 69.0542C274.844 63.003 285.079 60.2139 288.964 59.2677V43.3801H288.939Z" fill="white"/>
<path d="M319 25.9957C316.25 25.9957 314 23.7467 314 20.9978C314 18.249 316.25 16 319 16C321.75 16 324 18.249 324 20.9978C324.021 23.7675 321.75 25.9957 319 25.9957ZM319 16.354C316.437 16.354 314.354 18.4365 314.354 20.9978C314.354 23.5592 316.437 25.6417 319 25.6417C321.562 25.6417 323.646 23.5384 323.646 20.9978C323.667 18.4365 321.562 16.354 319 16.354Z" fill="black"/>
<path d="M317.125 17.9157C317.542 17.8324 318.146 17.7908 318.708 17.7908C319.583 17.7908 320.146 17.9574 320.562 18.3114C320.875 18.6029 321.062 19.0194 321.062 19.5192C321.062 20.3522 320.521 20.9144 319.854 21.1435V21.1643C320.333 21.3309 320.646 21.7891 320.792 22.4554C321 23.3509 321.146 23.9548 321.292 24.2047H320.437C320.333 24.0173 320.187 23.4758 320.021 22.6845C319.833 21.8099 319.5 21.4767 318.75 21.435H317.958V24.2047H317.125V17.9157ZM317.937 20.8311H318.771C319.646 20.8311 320.208 20.3522 320.208 19.6233C320.208 18.7903 319.625 18.4363 318.75 18.4363C318.354 18.4363 318.062 18.478 317.937 18.5196V20.8311Z" fill="black"/>
</svg>
